<svg width="737" height="541" viewBox="0 0 737 541" fill="none" xmlns="http://www.w3.org/2000/svg">
<rect x="334.805" y="489.041" width="31.1066" height="31.1066" rx="15.5533" fill="#3643BA"/>
<rect x="481.264" y="479.968" width="116.65" height="42.7716" fill="#F5F4F5"/>
<rect x="158.533" y="479.968" width="72.5821" height="42.7716" fill="#F5F4F5"/>
<rect x="307.586" y="19.8494" width="72.5821" height="42.7716" fill="#F5F4F5"/>
<path d="M544.032 492.065C543.545 492.065 543.151 491.671 543.151 491.184V488.626C543.151 488.139 542.756 487.745 542.27 487.745H528.805C528.318 487.745 527.924 488.139 527.924 488.626V512.786C527.924 513.272 528.318 513.667 528.805 513.667H550.971C551.457 513.667 551.852 513.272 551.852 512.786V492.946C551.852 492.46 551.457 492.065 550.971 492.065H544.032ZM549.677 510.626C549.677 511.112 549.282 511.507 548.796 511.507H530.98C530.494 511.507 530.099 511.112 530.099 510.626V508.068C530.099 507.581 530.494 507.186 530.98 507.186H548.796C549.282 507.186 549.677 507.581 549.677 508.068V510.626ZM530.98 505.026C530.494 505.026 530.099 504.632 530.099 504.145V490.786C530.099 490.299 530.494 489.905 530.98 489.905H540.094C540.581 489.905 540.976 490.299 540.976 490.786V493.344C540.976 493.831 541.37 494.225 541.857 494.225H548.796C549.282 494.225 549.677 494.62 549.677 495.106V504.145C549.677 504.632 549.282 505.026 548.796 505.026H530.98ZM543.151 509.546C543.151 510.032 542.756 510.427 542.27 510.427H537.506C537.019 510.427 536.625 510.032 536.625 509.546V509.148C536.625 508.661 537.019 508.266 537.506 508.266H542.27C542.756 508.266 543.151 508.661 543.151 509.148V509.546ZM532.274 497.267C532.274 496.78 532.669 496.385 533.156 496.385H533.569C534.055 496.385 534.45 496.78 534.45 497.267V497.665C534.45 498.151 534.055 498.546 533.569 498.546H533.156C532.669 498.546 532.274 498.151 532.274 497.665V497.267ZM536.625 497.267C536.625 496.78 537.019 496.385 537.506 496.385H537.919C538.406 496.385 538.8 496.78 538.8 497.267V497.665C538.8 498.151 538.406 498.546 537.919 498.546H537.506C537.019 498.546 536.625 498.151 536.625 497.665V497.267ZM540.976 497.267C540.976 496.78 541.37 496.385 541.857 496.385H542.27C542.756 496.385 543.151 496.78 543.151 497.267V497.665C543.151 498.151 542.756 498.546 542.27 498.546H541.857C541.37 498.546 540.976 498.151 540.976 497.665V497.267ZM545.326 497.267C545.326 496.78 545.721 496.385 546.207 496.385H546.62C547.107 496.385 547.501 496.78 547.501 497.267V497.665C547.501 498.151 547.107 498.546 546.62 498.546H546.207C545.721 498.546 545.326 498.151 545.326 497.665V497.267ZM532.274 492.946C532.274 492.46 532.669 492.065 533.156 492.065H537.919C538.406 492.065 538.8 492.46 538.8 492.946V493.344C538.8 493.831 538.406 494.225 537.919 494.225H533.156C532.669 494.225 532.274 493.831 532.274 493.344V492.946ZM532.274 501.587C532.274 501.1 532.669 500.706 533.156 500.706H533.569C534.055 500.706 534.45 501.1 534.45 501.587V501.985C534.45 502.472 534.055 502.866 533.569 502.866H533.156C532.669 502.866 532.274 502.472 532.274 501.985V501.587ZM536.625 501.587C536.625 501.1 537.019 500.706 537.506 500.706H537.919C538.406 500.706 538.8 501.1 538.8 501.587V501.985C538.8 502.472 538.406 502.866 537.919 502.866H537.506C537.019 502.866 536.625 502.472 536.625 501.985V501.587ZM540.976 501.587C540.976 501.1 541.37 500.706 541.857 500.706H542.27C542.756 500.706 543.151 501.1 543.151 501.587V501.985C543.151 502.472 542.756 502.866 542.27 502.866H541.857C541.37 502.866 540.976 502.472 540.976 501.985V501.587ZM545.326 501.587C545.326 501.1 545.721 500.706 546.207 500.706H546.62C547.107 500.706 547.501 501.1 547.501 501.587V501.985C547.501 502.472 547.107 502.866 546.62 502.866H546.207C545.721 502.866 545.326 502.472 545.326 501.985V501.587Z" fill="#616161"/>
<path fill-rule="evenodd" clip-rule="evenodd" d="M194.494 492.344C193.376 492.344 192.656 493.136 192.656 493.896C192.656 494.162 192.55 494.417 192.362 494.605C192.174 494.793 191.919 494.899 191.652 494.899C191.386 494.899 191.131 494.793 190.943 494.605C190.755 494.417 190.649 494.162 190.649 493.896C190.649 491.831 192.474 490.337 194.494 490.337C196.514 490.337 198.339 491.831 198.339 493.896C198.339 494.806 198.008 495.654 197.416 496.296C197.229 496.501 197.023 496.704 196.834 496.891L196.735 496.988C196.53 497.186 196.333 497.393 196.145 497.609C196.045 497.724 195.953 497.846 195.871 497.975C196.643 498.12 197.378 498.42 198.03 498.858L207.975 505.561C209.246 506.417 209.59 507.832 209.148 509.024C208.714 510.196 207.555 511.075 206.05 511.075H183.847C182.359 511.075 181.206 510.212 180.762 509.054C180.31 507.877 180.628 506.471 181.87 505.599L191.362 498.92C192.071 498.425 192.882 498.095 193.736 497.954C193.876 497.275 194.261 496.725 194.616 496.308C194.846 496.038 195.098 495.785 195.324 495.561L195.431 495.454C195.622 495.267 195.788 495.103 195.939 494.938C196.183 494.673 196.332 494.312 196.332 493.894C196.332 493.136 195.613 492.344 194.494 492.344ZM196.909 500.521C196.253 500.087 195.481 499.862 194.695 499.876C193.916 499.88 193.157 500.119 192.517 500.561L183.024 507.239C182.561 507.564 182.501 507.985 182.636 508.335C182.777 508.703 183.175 509.068 183.847 509.068H206.05C206.731 509.068 207.128 508.697 207.267 508.325C207.397 507.972 207.33 507.547 206.852 507.225L196.909 500.521Z" fill="#616161" stroke="#616161" stroke-width="0.5"/>
<path fill-rule="evenodd" clip-rule="evenodd" d="M343.547 32.2251C342.428 32.2251 341.709 33.0172 341.709 33.7771C341.709 34.0433 341.603 34.2985 341.415 34.4867C341.226 34.6748 340.971 34.7806 340.705 34.7806C340.439 34.7806 340.184 34.6748 339.996 34.4867C339.807 34.2985 339.702 34.0433 339.702 33.7771C339.702 31.7127 341.527 30.2183 343.547 30.2183C345.567 30.2183 347.392 31.7127 347.392 33.7771C347.392 34.6869 347.06 35.5352 346.469 36.1774C346.282 36.3821 346.076 36.5854 345.887 36.7727L345.788 36.8691C345.583 37.0676 345.386 37.2747 345.198 37.4899C345.098 37.6053 345.006 37.7278 344.924 37.8564C345.696 38.0013 346.431 38.3017 347.083 38.7395L357.028 45.4424C358.299 46.2987 358.643 47.7129 358.201 48.905C357.766 50.077 356.608 50.956 355.102 50.956H332.9C331.412 50.956 330.259 50.093 329.814 48.9357C329.362 47.7584 329.681 46.3522 330.922 45.4799L340.415 38.801C341.124 38.3059 341.935 37.9759 342.788 37.835C342.929 37.1567 343.314 36.6068 343.669 36.1894C343.899 35.9191 344.15 35.6663 344.376 35.4428L344.483 35.3358C344.675 35.1485 344.841 34.9839 344.992 34.8194C345.235 34.5545 345.385 34.1932 345.385 33.7758C345.385 33.0172 344.665 32.2251 343.547 32.2251ZM345.962 40.4025C345.306 39.9685 344.534 39.7437 343.748 39.7576C342.969 39.7615 342.21 40.0002 341.569 40.4426L332.077 47.1202C331.614 47.4453 331.554 47.8667 331.689 48.2159C331.829 48.5839 332.228 48.9491 332.9 48.9491H355.102C355.783 48.9491 356.181 48.5785 356.32 48.2066C356.45 47.8534 356.383 47.4279 355.905 47.1068L345.962 40.4025Z" fill="#616161" stroke="#616161" stroke-width="0.5"/>
<path d="M644.574 445.677C645.679 445.677 646.574 444.782 646.574 443.677C646.574 442.572 645.679 441.677 644.574 441.677V445.677ZM350.357 443.677V441.677C349.253 441.677 348.357 442.572 348.357 443.677H350.357ZM348.943 482.678C349.724 483.459 350.991 483.459 351.772 482.678L364.5 469.95C365.281 469.169 365.281 467.903 364.5 467.122C363.719 466.341 362.452 466.341 361.671 467.122L350.357 478.436L339.044 467.122C338.263 466.341 336.996 466.341 336.215 467.122C335.434 467.903 335.434 469.169 336.215 469.95L348.943 482.678ZM644.574 441.677H350.357V445.677H644.574V441.677ZM348.357 443.677V481.264H352.357V443.677H348.357Z" fill="#101010"/>
<circle cx="658.831" cy="444.973" r="13.5533" stroke="#101010" stroke-width="4"/>
<path d="M673.736 538.293H734.005V3H39.2911V138.443H3V538.293H598.562" stroke="#BABABA" stroke-width="5" stroke-linecap="round" stroke-linejoin="round"/>
<path d="M93.7285 407.386L93.7285 260.926" stroke="#BABABA" stroke-width="6" stroke-linecap="round"/>
<path d="M350.357 407.386L350.357 260.926" stroke="#BABABA" stroke-width="6" stroke-linecap="round"/>
<path d="M50.9551 407.386L50.9551 268.702" stroke="#BABABA" stroke-width="6" stroke-linecap="round"/>
<path d="M222.043 407.386L222.043 260.926" stroke="#BABABA" stroke-width="6" stroke-linecap="round"/>
<path d="M478.672 407.386L478.672 260.926" stroke="#BABABA" stroke-width="6" stroke-linecap="round"/>
<path d="M521.443 407.386L521.443 260.926" stroke="#BABABA" stroke-width="6" stroke-linecap="round"/>
<path d="M136.5 407.386L136.5 260.926" stroke="#BABABA" stroke-width="6" stroke-linecap="round"/>
<path d="M393.129 407.386L393.129 260.926" stroke="#BABABA" stroke-width="6" stroke-linecap="round"/>
<path d="M264.814 407.386L264.814 260.926" stroke="#BABABA" stroke-width="6" stroke-linecap="round"/>
<path d="M564.215 407.386L564.215 260.926" stroke="#BABABA" stroke-width="6" stroke-linecap="round"/>
<path d="M179.271 407.386L179.271 260.926" stroke="#BABABA" stroke-width="6" stroke-linecap="round"/>
<path d="M435.9 407.386L435.9 260.926" stroke="#BABABA" stroke-width="6" stroke-linecap="round"/>
<path d="M307.586 407.386L307.586 342.581" stroke="#BABABA" stroke-width="6" stroke-linecap="round"/>
<path d="M606.986 407.386L606.986 260.926" stroke="#BABABA" stroke-width="6" stroke-linecap="round"/>
<path d="M649.758 407.386L649.758 260.926" stroke="#BABABA" stroke-width="6" stroke-linecap="round"/>
<path d="M564.215 212.97L564.215 62.621" stroke="#BABABA" stroke-width="6" stroke-linecap="round"/>
<path d="M521.443 212.97L521.443 62.621" stroke="#BABABA" stroke-width="6" stroke-linecap="round"/>
<path d="M478.672 212.97L478.672 62.621" stroke="#BABABA" stroke-width="6" stroke-linecap="round"/>
<path d="M435.9 212.97L435.9 62.621" stroke="#BABABA" stroke-width="6" stroke-linecap="round"/>
<path d="M397.018 212.97L397.018 62.621" stroke="#BABABA" stroke-width="6" stroke-linecap="round"/>
<path d="M307.586 212.97L307.586 96.3198" stroke="#BABABA" stroke-width="6" stroke-linecap="round"/>
<path d="M264.814 212.97L264.814 62.621" stroke="#BABABA" stroke-width="6" stroke-linecap="round"/>
<path d="M222.043 212.97L222.043 62.621" stroke="#BABABA" stroke-width="6" stroke-linecap="round"/>
<path d="M180.566 212.97L180.566 62.621" stroke="#BABABA" stroke-width="6" stroke-linecap="round"/>
<path d="M136.5 212.97L136.5 62.621" stroke="#BABABA" stroke-width="6" stroke-linecap="round"/>
<path d="M95.0234 212.97L95.0234 62.621" stroke="#BABABA" stroke-width="6" stroke-linecap="round"/>
<path d="M692.529 212.97L692.529 62.621" stroke="#BABABA" stroke-width="6" stroke-linecap="round"/>
<path d="M649.758 212.97L649.758 62.621" stroke="#BABABA" stroke-width="6" stroke-linecap="round"/>
<path d="M75.582 518.851L75.582 482.56" stroke="#BABABA" stroke-width="6" stroke-linecap="round"/>
<path d="M137.146 518.851L137.146 482.56" stroke="#BABABA" stroke-width="6" stroke-linecap="round"/>
<path d="M606.986 212.97L606.986 62.621" stroke="#BABABA" stroke-width="6" stroke-linecap="round"/>
</svg>
